<?xml version="1.0" encoding="UTF-8" standalone="no"?><!DOCTYPE svg PUBLIC "-//W3C//DTD SVG 1.1//EN" "http://www.w3.org/Graphics/SVG/1.1/DTD/svg11.dtd"><svg width="100%" height="100%" viewBox="0 0 48915 23368" version="1.1" xmlns="http://www.w3.org/2000/svg" xmlns:xlink="http://www.w3.org/1999/xlink" xml:space="preserve" xmlns:serif="http://www.serif.com/" style="fill-rule:evenodd;clip-rule:evenodd;stroke-linejoin:round;stroke-miterlimit:2;"><g><g><g transform="matrix(0.980204,0,0,1,822.539535,0)"><text x="41550.795px" y="3105.992px" style="font-family:'MicrosoftSansSerif', 'Microsoft Sans Serif', sans-serif;font-size:1574.342px;fill:url(#_Linear1);">R</text></g></g><path d="M42084.703,1384.079c644.879,0 1168.454,523.558 1168.454,1168.454c0,644.879 -523.558,1168.454 -1168.454,1168.454c-644.879,0 -1168.454,-523.558 -1168.454,-1168.454c0,-644.879 523.558,-1168.454 1168.454,-1168.454Zm0,241.458c-511.617,0 -926.996,415.363 -926.996,926.996c0,511.617 415.367,926.996 926.996,926.996c511.617,0 926.996,-415.367 926.996,-926.996c0,-511.617 -415.367,-926.996 -926.996,-926.996Z" style="fill:url(#_Linear2);"/><g><g transform="matrix(1,0,0,0.943795,-0,1259.370919)"><text x="-373.697px" y="22406.742px" style="font-family:'YuGothicUI-Bold', 'Yu Gothic UI', sans-serif;font-weight:700;font-size:4323.904px;">Highest Creditworthiness</text></g></g><path d="M4120.991,16091.613l4692.829,-13539.096l5539.617,-0l4703.3,13539.096l-5036.858,0l-453.767,-1553.071l-4003.838,0l-418.038,1553.071l-5023.262,0l0.017,0Zm6418.488,-4885.833l2054.829,0l-1030.158,-3436.146l-1024.671,3436.146Z" style="fill:url(#_Linear3);"/><path d="M21141.078,0l6647.571,0l5430.138,16091.633l-5890.575,0l-445.521,-1883.175l-4884.567,0l-444.271,1883.175l-5886.163,0l5473.388,-16091.633Zm3349.583,6109.446l-1283.542,4211.321l2467.258,0l-1183.696,-4211.321l-0.021,0Z" style="fill:url(#_Linear4);"/><path d="M40103.162,2552.533l4572.725,13539.096l-4922.571,0l-445.763,-1553.075l-4008.592,0l-416.787,1553.071l-4892.362,0l4586.458,-13539.096l5526.892,-0l0,0.004Zm-2768.821,5217.117l-1020.367,3436.146l2054.738,0l-1034.375,-3436.146l0.004,0Z" style="fill:url(#_Linear5);"/></g><defs><linearGradient id="_Linear1" x1="0" y1="0" x2="1" y2="0" gradientUnits="userSpaceOnUse" gradientTransform="matrix(939.379654,0,0,939.379654,131109.1763,18601.423942)"><stop offset="0" style="stop-color:#dea843;stop-opacity:1"/><stop offset="1" style="stop-color:#e7c766;stop-opacity:1"/></linearGradient><linearGradient id="_Linear2" x1="0" y1="0" x2="1" y2="0" gradientUnits="userSpaceOnUse" gradientTransform="matrix(-2336.893212,0,-0,-2336.893212,43253.146646,2552.530592)"><stop offset="0" style="stop-color:#e7c766;stop-opacity:1"/><stop offset="1" style="stop-color:#dea843;stop-opacity:1"/></linearGradient><linearGradient id="_Linear3" x1="0" y1="0" x2="1" y2="0" gradientUnits="userSpaceOnUse" gradientTransform="matrix(-5539.62455,0,-0,-5539.62455,14353.453329,2552.530592)"><stop offset="0" style="stop-color:#e7c766;stop-opacity:1"/><stop offset="0.39" style="stop-color:#e0ad49;stop-opacity:1"/><stop offset="1" style="stop-color:#dea843;stop-opacity:1"/></linearGradient><linearGradient id="_Linear4" x1="0" y1="0" x2="1" y2="0" gradientUnits="userSpaceOnUse" gradientTransform="matrix(-6647.549463,0,-0,-6647.549463,27788.634717,-0.005883)"><stop offset="0" style="stop-color:#e7c766;stop-opacity:1"/><stop offset="1" style="stop-color:#dea843;stop-opacity:1"/></linearGradient><linearGradient id="_Linear5" x1="0" y1="0" x2="1" y2="0" gradientUnits="userSpaceOnUse" gradientTransform="matrix(-5526.889792,0,-0,-5526.889792,40103.156438,2552.530592)"><stop offset="0" style="stop-color:#e7c766;stop-opacity:1"/><stop offset="1" style="stop-color:#dea843;stop-opacity:1"/></linearGradient></defs></svg>