<?xml version="1.0" encoding="UTF-8" standalone="no"?><!DOCTYPE svg PUBLIC "-//W3C//DTD SVG 1.1//EN" "http://www.w3.org/Graphics/SVG/1.1/DTD/svg11.dtd"><svg width="100%" height="100%" viewBox="0 0 7836 2151" version="1.1" xmlns="http://www.w3.org/2000/svg" xmlns:xlink="http://www.w3.org/1999/xlink" xml:space="preserve" xmlns:serif="http://www.serif.com/" style="fill-rule:evenodd;clip-rule:evenodd;stroke-linecap:round;stroke-linejoin:round;stroke-miterlimit:1.5;"><path d="M3471.513,601.442c-10.625,-17.396 33.421,-41.129 30.45,-42.5c0,0 95.988,-55.192 132.533,-62.258c54.375,-10.521 193.733,-0.867 193.733,-0.867l45.971,24.654c0,0 188.471,135.121 214.983,162.987c0,0 86.579,17.292 104.342,29.254c27.55,18.558 30.383,118.612 26.058,122.917l140.971,112.033c0,0 14.2,120.137 -3.592,126.113c-55.762,18.717 -357.396,-162.067 -504.967,-240.783c-132.708,-70.8 -361.267,-200.104 -380.488,-231.562l0,0.017l0.004,-0.004Z" style="fill:#fff;"/><path d="M3457.117,626.513c67.758,-13.821 161.617,-18.942 163.679,-13.35c-3.821,4.583 195.642,8.767 207.346,6.008c2.467,-0.575 -54.479,-35.137 -56.963,-36.946c-18.108,-13.054 -249.392,-14.617 -312.5,12.117c-0.592,0.242 -1.283,0.625 -2.1,1.096c-0.192,0.433 -0.329,0.888 -0.417,1.321c-1.858,10.296 17.742,16.162 9.95,23.612c-2.012,1.929 -5.121,3.992 -9.013,6.129l0.017,0.017l0,-0.004Z" style="fill:#4285f4;"/><path d="M3371.596,695.329c25.329,-20.833 25.887,-20.658 44.254,-35.296c21.458,-17.083 53.767,-39.429 67.604,-43.038c7.188,-1.875 -22.692,-18.108 -24.325,-19.2c1.825,-6.508 20.329,20.208 24.325,19.2c125.521,-31.787 268.196,7.033 286.304,4.913c9.862,-1.163 92.362,-14.271 117.933,38.8c7.933,16.458 -9.742,43.038 4.358,54.633c62.379,51.321 140.867,79.183 209.704,121.475c23.054,14.167 195.258,119.983 273.888,198.388c0.971,2.846 -0.625,58.596 0.087,98.612" style="fill:#fff;"/><path d="M3483.179,620.746c-28.317,8.871 -109.254,77.013 -109.6,76.979c-2.133,-0.208 -8.229,0.675 -3.958,-4.808c0.208,-0.258 44.512,-36.617 66.683,-52.45c20.417,-14.583 32.692,-21.267 39.358,-24.304c-3.038,-2.846 -6.233,-6.562 -9.217,-9.775c-5.571,-3.263 -10.554,-6.217 -10.867,-7.95c-0.225,-1.196 1.787,-11.075 12.621,-0.712c0.713,0.696 1.65,1.633 2.692,2.708c6.2,3.733 12.762,8.108 15.729,11.979c133.175,-30.45 250,5.346 282.033,4.95c1.633,-0.017 96.7,-17.604 124.029,42.137c7.5,16.425 -7.708,43.35 2.742,51.858c68.367,55.625 120.954,64.792 236.667,137.204c135.954,85.087 214.167,147.258 248.454,181.683c4.254,4.271 1.737,26.233 2.258,87.9c0.121,14.496 0.658,14.567 0.208,15.521c-1.442,3.092 -5.658,4.271 -7.1,7.362c-1.529,-3.054 -5.833,-4.079 -7.363,-7.138c-0.625,-1.25 0.642,-71.283 0.367,-95.608c-21.217,-20.45 -87.708,-82.846 -264.221,-192.742c-77.967,-48.542 -152.971,-74.008 -215.921,-126.267c-17.517,-14.55 2.725,-40.971 -6.667,-58.679c-26.321,-49.567 -108.592,-33.508 -117.467,-34.2c-46.162,-3.612 -152.554,-35.121 -280.433,-5.763c-0.312,0.071 -0.642,0.104 -0.987,0.087l-0.033,0.033l-0.008,-0.008Z" style="fill:#4285f4;"/><path d="M3362.013,702.779c1.267,-1.492 -0.521,-4.342 0.746,-5.85c1.075,-1.267 47.742,-36.633 51.908,-39.792c74.912,-56.771 81.025,-48.75 204.846,-52.204c14.879,-0.417 14.983,-0.817 15.367,-0.467c0.433,0.4 4.15,2.758 0.137,3.333c-21.042,3.054 -112.971,-0.887 -150.592,12.987c-39.792,14.671 -113.646,83.092 -116.579,82.725l-5.833,-0.729l0,-0.004Z" style="fill:#4285f4;"/><path d="M3882.692,652.083c0.208,-1.492 0.833,-44.617 -0.867,-46.337c-13.317,-13.333 -95.867,-62.379 -113.35,-71.979c-13.904,-7.638 -208.454,-2.083 -252.379,13.958c-4.183,1.529 -26.717,23.958 -56.946,48.388c-0.296,0.242 5.592,5.054 7.588,6.7c7.292,6.025 19.617,11.562 18.508,12.467" style="fill:none;stroke:#4285f4;stroke-width:7.29px;"/><path d="M3756.146,656.2c-0.642,-0.45 1.233,-3.158 3.004,-6.321c1.3,-2.325 3.733,-1.408 5.554,-1.387c20.867,0.192 69.808,1.096 70.071,3.908c0,0 22.763,7.188 27.275,17.763c8.854,20.713 37.867,56.025 37.867,56.025c17.237,9.583 -106.963,-44.167 -143.767,-70l0,0.017l-0.004,-0.004Z" style="fill:#4285f4;"/><path d="M4367.292,1024.375c-9.688,-18.612 -29.062,-55.817 -52.829,-75.071c-88.508,-71.7 -349.446,-287.779 -478.246,-355.138c-88.196,-46.112 -225.729,-48.004 -294.513,-48.942" style="fill:none;"/><path d="M4080.054,682.708c-15.625,-12.829 -169.408,-139.704 -235.729,-176.025c-6.233,-3.404 -11.579,-10.471 -77.45,-11.633c-73.925,-1.3 -158.821,7.446 -193.196,28.663c-0.279,0.175 -25.729,16.096 -30.554,20.208c-1.338,1.146 -3.525,-0.033 -5.279,-0.033c0.608,-3.367 -1.546,-4.112 1.129,-6.321c0.938,-0.763 27.308,-19.617 40.833,-25.888c66.092,-30.575 230.471,-29.95 258.092,-18.612c55.175,22.658 250.329,180.592 252.154,183.75c4.167,7.292 0.675,33.492 0.867,60.417c47.829,35 277.988,195.887 283.613,212.187c1.162,3.35 1.3,17.5 0.554,50.675c-0.175,8.142 1.442,16.546 -0.571,24.446c-0.833,3.317 -6.596,3.75 -7.429,7.05c-0.658,-3.35 -6.371,-4.096 -7.033,-7.446c-0.312,-1.617 2.012,-40.017 1.129,-69.2c-70.45,-63.508 -244.55,-182.154 -279.342,-209.758c-6.683,-5.296 0.85,-39.062 -1.787,-62.483l0,0.004Z" style="fill:#4285f4;"/><path d="M3806.563,716.058c9.217,1.388 14.704,15.833 12.221,32.242c-2.483,16.408 -11.979,28.575 -21.196,27.188c-9.217,-1.388 -14.704,-15.833 -12.221,-32.238c2.483,-16.408 11.979,-28.575 21.2,-27.188l-0.004,-0.004Z" style="fill:#4285f4;"/><path d="M3855.312,734.704c9.217,1.387 14.704,15.833 12.221,32.242c-2.483,16.408 -11.979,28.575 -21.2,27.188c-9.217,-1.388 -14.704,-15.833 -12.221,-32.237c2.483,-16.408 11.979,-28.575 21.196,-27.188l0.004,-0.004Z" style="fill:#4285f4;"/><path d="M3901.008,761.425c9.217,1.387 14.704,15.833 12.221,32.237c-2.483,16.408 -11.979,28.575 -21.2,27.188c-9.217,-1.388 -14.704,-15.833 -12.221,-32.237c2.483,-16.408 11.979,-28.575 21.2,-27.188Z" style="fill:#4285f4;"/><path d="M3920.263,698.075c-3.646,-1.492 -4.183,-42.171 -0.575,-41.112c11.617,3.367 310,204.929 372.483,265.138c2.133,2.067 3.887,17.5 1.683,15.488c-60.729,-55.833 -345.279,-227.867 -373.612,-239.513l0.021,-0Z" style="fill:#4285f4;"/><path d="M3918.854,635.763c-1.579,-0.383 0.504,-35.071 0,-36.529c-7.829,-22.5 115.087,87.067 152.467,116.721c1.65,1.3 0.8,20.696 -0.904,19.654c-28.871,-17.863 -138.821,-96.717 -151.562,-99.842l0,-0.004Z" style="fill:#4285f4;"/><path d="M3649.775,756.371c1.579,0.071 50.45,-41.233 45.833,-42.029c-86.162,-14.758 -253.942,-13.7 -298.925,0.608c-18.367,5.85 -105.888,60.329 -81.371,53.596c98.783,-27.171 292.242,-14.029 334.446,-12.188l0.017,0.017l0,-0.004Z" style="fill:#4285f4;"/><path d="M4388.783,1144.096c-370.779,-336.925 -1533.575,-597.171 -1430.867,-464.825c66.683,85.921 141.442,122.013 315.279,399.513c64.392,102.796 74.55,182.517 307.083,170.137c790,-42.083 856.771,-60.954 808.508,-104.825l-0.004,0Z" style="fill:#fff;stroke:#4285f4;stroke-width:17.38px;"/><path d="M3975.575,877.342c-0.938,-3.367 -39.983,-51.233 -33.279,-59.929c7.779,-10.087 12.258,-9.775 29.271,-7.171c18.404,2.813 123.317,40.45 125.4,68.021c0.175,2.221 -110.488,3.092 -121.388,-0.904l0,-0.017l-0.004,0Zm-19.062,-59.896c-25.487,8.558 26.771,50.779 26.963,50.779c4.408,0.329 38.004,0.679 47.258,-0.537c46.025,-6.042 -44.429,-60.242 -74.2,-50.242l-0.021,-0Z" style="fill:#4285f4;"/><path d="M4121.617,945.138c-0.679,-2.429 -28.942,-37.083 -24.096,-43.388c5.625,-7.308 8.871,-7.083 21.2,-5.192c13.333,2.05 89.271,29.288 90.783,49.238c0.121,1.617 -79.983,2.238 -87.883,-0.658l-0.004,0Zm-13.8,-43.367c-18.454,6.2 19.375,36.754 19.512,36.771c3.196,0.242 27.517,0.487 34.2,-0.4c33.333,-4.375 -32.171,-43.613 -53.717,-36.371l0.004,0Z" style="fill:#4285f4;"/><path d="M4228.021,1002.933c-0.504,-1.825 -21.754,-27.867 -18.108,-32.604c4.238,-5.487 6.667,-5.312 15.921,-3.908c10.017,1.529 67.083,22.012 68.213,36.996c0.087,1.217 -60.104,1.683 -66.025,-0.487l0,0.004Zm-10.367,-32.587c-13.871,4.654 14.567,27.621 14.671,27.621c2.396,0.175 20.675,0.362 25.696,-0.296c25.033,-3.3 -24.167,-32.763 -40.367,-27.325Z" style="fill:#4285f4;"/><path d="M3500.538,960.138c26.683,11.633 35.521,50.487 19.721,86.717c-15.8,36.233 -50.279,56.2 -76.963,44.567c-26.683,-11.633 -35.521,-50.487 -19.721,-86.717c15.8,-36.233 50.279,-56.2 76.963,-44.567Z" style="fill:#4285f4;"/><path d="M3704.271,693.508c1.425,0.071 43.558,-39.633 39.375,-40.4c-78.075,-14.463 -227.967,-14.217 -268.717,-0.192c-16.65,5.729 -95.954,59.15 -73.733,52.533c89.512,-26.633 264.808,-13.75 303.054,-11.946l0.017,0l0.004,0.004Z" style="fill:#4285f4;"/><path d="M3025.679,753.142c-3.092,-3.038 -6.683,-5.504 -9.775,-8.542c-0.571,-0.571 -0.071,-3.854 0,-4.617c6.408,-65.45 277.029,-29.342 593.908,71.946c138.262,44.183 251.825,89.808 307.637,112.779c79.112,32.533 -40.279,-16.162 -154.912,-56.025c-430.4,-149.6 -705.592,-165.571 -728.438,-129.929c-0.746,1.162 -1.042,2.429 -0.971,3.8c0.071,1.042 -0.521,0.729 -7.467,10.592l0.017,0l0,-0.004Z" style="fill:#4285f4;"/><path d="M4219.096,835.642c-0.554,-14.392 0.921,-65.504 0.346,-68.092c-6.129,-27.708 -106.163,-95.954 -128.492,-60.054c-4.479,7.204 0.383,-13.421 1.508,-19.133c7.171,-36.442 102.933,11.233 122.883,47.275c6.892,12.467 5.504,32.9 5.658,44.183" style="fill:#4285f4;"/><path d="M4225.033,779.496c0.154,9.95 0.592,42.1 1.113,52.9c0.05,0.992 0.713,2.154 0.175,2.988c-2.796,4.321 -4.15,3.142 -6.963,7.483c-2.029,-2.758 -5.487,-4.254 -7.5,-7.012c-0.467,-0.642 2.221,-55.242 2.446,-65.175c0.554,-24.062 -98.733,-95.625 -121.371,-63.021c-1.146,1.667 -4.15,5.05 -5.383,1.408c-0.033,-0.121 0.779,-24.775 9.237,-31.042c25.087,-18.613 114.096,28.437 124.775,64.496c2.325,7.829 2.987,18.542 3.196,25.675c0.938,4.221 0.417,7.033 0.258,8.525c0.137,0.954 0.296,1.929 0,2.796l0.017,-0.017l-0,-0.004Zm-8.054,-26.529c-0.954,-7.413 -3.333,-15.346 -8.575,-22.362c-25.575,-34.183 -107.346,-73.821 -114.342,-41.892c-1.754,8.004 -2.55,12.396 -2.933,15c12.1,-15.383 50.538,-9.633 95.504,22.012c15.383,10.817 24.721,19.879 30.346,27.258l0,-0.017Z" style="fill:#4285f4;"/><path d="M3836.217,495.833c-0.225,-2.342 -2.517,-24.271 -4.254,-28.229c-5.642,-12.917 -51.683,-6.804 -69.375,-3.179c-4.408,0.904 -11.513,25.192 -14.342,28.942" style="fill:#4285f4;"/><path d="M3683.629,494.429c-0.225,-2.5 -1.008,-11.2 -1.354,-15.642c-1.387,-18.004 -50.625,-8.317 -71.354,-1.425c-4.238,1.408 -9.533,24.863 -12.363,28.854" style="fill:#4285f4;"/><text x="701.2px" y="1179.183px" style="font-family:'Stencil', fantasy;font-size:461.475px;fill:#4285f4;">Example</text><text x="1946.075px" y="1549.638px" style="font-family:'Stencil', fantasy;font-size:286.892px;fill:#4285f4;">SOLUTIONS NOT PROMISES</text><text x="4580.904px" y="1180.054px" style="font-family:'Stencil', fantasy;font-size:462.971px;fill:#4285f4;">Company Ltd.</text><rect x="0" y="0" width="7835.783" height="2150.279" style="fill:none;"/></svg>